{"title":"Asylum Blackout 2011 BRRip x264 AAC-UNiQUE","uid":7490173,"size":753514221,"categoryP":"video","categoryS":"movies","magnet":"?xt=urn:btih:695b5c02074ff182b67dd902d82d0ce6eb05e01c&amp;dn=Asylum+Blackout+2011+BRRip+x264+AAC-UNiQUE&amp;tr=udp%3A%2F%2Ftracker.openbittorrent.com%3A80&amp;tr=udp%3A%2F%2Fopen.demonii.com%3A1337&amp;tr=udp%3A%2F%2Ftracker.coppersurfer.tk%3A6969&amp;tr=udp%3A%2F%2Fexodus.desync.com%3A6969","seeders":3,"leechers":2,"uploader":"hiest","files":-1,"time":1343707834,"description":"##     ## ##    ## ####  #######  ##     ## ######## \n##     ## ###   ##  ##  ##     ## ##     ## ##       \n##     ## ####  ##  ##  ##     ## ##     ## ##       \n##     ## ## ## ##  ##  ##     ## ##     ## ######   \n##     ## ##  ####  ##  ##  ## ## ##     ## ##       \n##     ## ##   ###  ##  ##    ##  ##     ## ##       \n #######  ##    ## ####  ##### ##  #######  ######## \n\n\nGeneral\nComplete name : Asylum Blackout 2011 BRRip x264 AAC-UNiQUE.mp4\nFormat : MPEG-4\nFormat profile : Base Media\nCodec ID : isom\nFile size : 699 MiB\nDuration : 1h 24mn\nOverall bit rate mode : Variable\nOverall bit rate : 1 158 Kbps\nEncoded date : UTC 2012-07-30 20:53:40\n\niMDB: &lt;a href=&quot;\nhttp://www.imdb.com/title/tt1027820&quot; rel=&quot;nofollow&quot; target=&quot;_NEW&quot;&gt;\nhttp://www.imdb.com/title/tt1027820&lt;/a&gt;\n\nVideo\nID : 1\nFormat : AVC\nFormat/Info : Advanced Video Codec\nFormat profile : &lt;a class=&quot;__cf_email__&quot; href=&quot;/cdn-cgi/l/email-protection&quot; data-cfemail=&quot;1a52737d725a562e342b&quot;&gt;[email&amp;#160;protected]&lt;/a&gt;&lt;script cf-hash='f9e31' type=&quot;text/javascript&quot;&gt;\n/* &lt;![CDATA[ */!function(){try{var t=&quot;currentScript&quot;in document?document.currentScript:function(){for(var t=document.getElementsByTagName(&quot;script&quot;),e=t.length;e--;)if(t[e].getAttribute(&quot;cf-hash&quot;))return t[e]}();if(t&amp;&amp;t.previousSibling){var e,r,n,i,c=t.previousSibling,a=c.getAttribute(&quot;data-cfemail&quot;);if(a){for(e=&quot;&quot;,r=parseInt(a.substr(0,2),16),n=2;a.length-n;n+=2)i=parseInt(a.substr(n,2),16)^r,e+=String.fromCharCode(i);e=document.createTextNode(e),c.parentNode.replaceChild(e,c)}}}catch(u){}}();/* ]]&gt; */&lt;/script&gt;\nFormat settings, CABAC : Yes\nFormat settings, ReFrames : 3 frames\nCodec ID : avc1\nCodec ID/Info : Advanced Video Coding\nDuration : 1h 24mn\nBit rate mode : Variable\nBit rate : 811 Kbps\nMaximum bit rate : 40.0 Mbps\nWidth : 720 pixels\nHeight : 304 pixels\nDisplay aspect ratio : 2.35:1\nFrame rate mode : Constant\nFrame rate : 24.000 fps\nColor space : YUV\nChroma subsampling : 4:2:0\nBit depth : 8 bits\nScan type : Progressive\nBits/(Pixel*Frame) : 0.154\nStream size : 489 MiB (70%)\nWriting library : x264 core 125 r2208 d9d2288\n\nAudio\nID : 2\nFormat : AAC\nFormat/Info : Advanced Audio Codec\nFormat profile : LC\nCodec ID : 40\nDuration : 1h 24mn\nBit rate mode : Variable\nBit rate : 344 Kbps\nMaximum bit rate : 402 Kbps\nChannel(s) : 6 channels\nChannel positions : Front: L C R, Side: L R, LFE\nSampling rate : 48.0 KHz\nCompression mode : Lossy\nStream size : 208 MiB (30%)\nLanguage : English\nEncoded date : UTC 2012-07-30 20:53:59\n\nSources : 1080p.BluRay.x264-MELiTE - Thanks! \n\nStoryline\nA group of cooks at an asylum for the criminally insane get locked in with the inmates during a massive thunderstorm.\n\niMDB: http://www.imdb.com/title/tt0948470\n\n\n##     ## ##    ## ####  #######  ##     ## ######## \n##     ## ###   ##  ##  ##     ## ##     ## ##       \n##     ## ####  ##  ##  ##     ## ##     ## ##       \n##     ## ## ## ##  ##  ##     ## ##     ## ######   \n##     ## ##  ####  ##  ##  ## ## ##     ## ##       \n##     ## ##   ###  ##  ##    ##  ##     ## ##       \n #######  ##    ## ####  ##### ##  #######  ######## ","torrent":{"xt":"urn:btih:695b5c02074ff182b67dd902d82d0ce6eb05e01c","amp;dn":"Asylum+Blackout+2011+BRRip+x264+AAC-UNiQUE","amp;tr":["udp%3A%2F%2Ftracker.openbittorrent.com%3A80","udp%3A%2F%2Fopen.demonii.com%3A1337","udp%3A%2F%2Ftracker.coppersurfer.tk%3A6969","udp%3A%2F%2Fexodus.desync.com%3A6969"],"infoHash":"695b5c02074ff182b67dd902d82d0ce6eb05e01c","infoHashBuffer":{"type":"Buffer","data":[105,91,92,2,7,79,241,130,182,125,217,2,216,45,12,230,235,5,224,28]},"announce":[],"urlList":[]}}